<?xml version="1.0" encoding="utf-8"?>
<!-- Svg Vector Icons : http://www.onlinewebfonts.com/icon -->
<!DOCTYPE svg PUBLIC "-//W3C//DTD SVG 1.1//EN" "http://www.w3.org/Graphics/SVG/1.1/DTD/svg11.dtd">
<svg version="1.1" xmlns="http://www.w3.org/2000/svg" xmlns:xlink="http://www.w3.org/1999/xlink" x="0px" y="0px" viewBox="0 0 1000 1000" enable-background="new 0 0 1000 1000" xml:space="preserve">
<metadata> Svg Vector Icons : http://www.onlinewebfonts.com/icon </metadata>
<g><g transform="translate(0.000000,512.000000) scale(0.100000,-0.100000)"><path d="M4655.9,5004.7c-15.3-3.8-130-17.2-254.3-28.7l-225.6-24.8l11.5-78.4c7.6-42.1,17.2-91.8,21-110.9c7.6-22.9-7.6-34.4-51.6-44c-70.7-15.3-84.1,0-103.2,118.5c-5.7,44-17.2,82.2-24.8,82.2c-61.2,0-715-189.3-772.4-221.8c-7.6-5.7,5.7-51.6,26.8-105.2c42.1-101.3,36.3-122.4-42.1-141.5c-44-11.5-51.6-3.8-84.1,86c-30.6,84.1-40.1,95.6-76.5,84.1c-63.1-19.1-445.5-214.1-588.8-298.2l-130-76.5l57.4-82.2c32.5-45.9,57.4-89.9,57.4-99.4c0-9.6-24.8-30.6-53.5-47.8l-53.5-32.5l-53.5,86c-28.7,45.9-63.1,84.1-74.6,84.1c-30.6,0-351.8-248.5-508.5-393.8L1595,3632l72.7-74.6c57.4-59.3,66.9-80.3,51.6-105.2c-47.8-76.5-80.3-74.6-158.7,1.9l-76.5,74.6l-93.7-103.2c-131.9-145.3-193.1-219.9-298.2-355.6l-89.9-120.4l87.9-61.2c47.8-32.5,86-66.9,86-74.6s-17.2-32.5-36.3-57.4l-36.3-45.9l-87.9,61.2l-87.9,61.2l-55.4-82.2c-66.9-97.5-229.4-391.9-296.3-541.1l-47.8-103.2l95.6-40.2c87.9-36.3,95.6-44,84.1-89.8c-19.1-78.4-34.4-82.2-131.9-38.2c-51.6,21-99.4,32.5-107.1,22.9c-24.9-24.9-149.1-395.7-202.7-596.5c-51.6-202.7-51.6-200.7,84.1-221.8c82.2-11.5,84.1-13.4,72.7-72.6c-5.7-32.5-15.3-63.1-21-66.9c-3.8-5.7-53.5,0-109,11.5c-55.4,9.6-103.2,17.2-103.2,17.2c-11.5-13.4-66.9-464.6-76.5-629L100,198.4l112.8-5.7l112.8-5.7V120V53.1l-112.8-5.7L100,41.6l13.4-195c19.1-292.5,51.6-531.5,76.5-541.1c11.5-3.8,63.1,0,112.8,9.6c86,15.3,91.8,13.4,101.3-28.7c19.1-74.6-3.8-99.4-105.2-112.8c-53.5-7.6-97.5-19.1-97.5-24.9c0-61.2,189.3-716.9,223.7-772.4c3.8-7.7,51.6,3.8,105.2,24.9c105.2,40.1,120.4,36.3,139.6-42.1c11.5-45.9,5.7-53.5-84.1-86c-84.1-28.7-95.6-40.1-86-72.6c19.1-63.1,214.1-447.4,300.2-590.8l76.5-130l49.7,32.5c26.8,17.2,66.9,43.9,87.9,59.3c49.7,34.4,53.5,32.5,91.8-30.6l32.5-55.5l-86-55.4c-47.8-28.7-86-61.2-86-68.8c0-42.1,470.3-623.3,520-642.4c11.5-3.8,51.6,26.8,93.7,66.9l74.6,72.7l47.8-45.9l47.8-45.9l-78.4-80.3l-80.3-82.2l103.2-93.7c193.1-175.9,474.1-397.7,483.7-384.3c3.8,7.7,110.9,156.8,118.5,168.3c11.5,13.4,103.2-55.5,103.2-76.5c0-11.5-21-47.8-47.8-82.2c-26.8-34.4-47.8-72.6-47.8-84.1c0-17.2,143.4-110.9,401.5-258.1c47.8-26.8,137.7-70.7,198.8-97.5l110.9-49.7l40.1,97.5c36.3,86,45.9,93.7,89.9,84.1c76.5-19.1,82.2-38.2,40.2-135.7c-22.9-49.7-34.4-97.5-26.8-105.2c45.9-44,757.1-256.2,789.6-237.1c9.6,5.7,21,53.5,28.7,107.1c13.4,97.5,13.4,97.5,72.6,86c32.5-5.7,63.1-17.2,68.8-21c5.7-5.7,0-53.5-9.6-107.1c-11.5-51.6-15.3-99.4-7.6-103.2c24.8-15.3,424.4-66.9,627.1-78.4l214.1-13.4v118.5c0,101.3,3.8,116.6,36.3,116.6c82.2,0,97.5-19.1,97.5-128.1V-4780l196.9,13.4c319.3,21,531.5,51.6,543,80.3c5.7,13.4,1.9,63.1-9.6,110.9c-15.3,78.4-15.3,86,22.9,95.6c91.8,24.9,101.3,15.3,116.6-93.7c5.7-57.4,17.2-105.2,24.9-105.2c74.6,0,741.8,196.9,774.3,227.5c7.7,7.6-3.8,55.4-24.8,107.1c-21,49.7-36.3,93.7-34.4,95.6c19.1,15.3,91.8,47.8,107.1,47.8c11.5,0,34.4-44,53.5-95.6c28.7-82.2,40.2-93.7,72.7-84.1c63.1,19.1,447.4,214.1,590.8,300.2c143.4,84.1,139.6,61.2,42.1,212.2c-28.7,44-28.7,47.8,26.8,86l55.4,40.1l55.4-86c28.7-47.8,57.4-86,63.1-86c7.7,0,594.6,474.1,640.5,518.1c9.6,11.5-11.5,45.9-57.4,93.7c-72.6,74.6-72.6,76.5-38.2,114.7c47.8,51.6,63.1,49.7,143.4-28.7l70.7-68.8l114.7,122.3c63.1,68.8,174,198.8,244.7,290.6c103.2,131.9,124.3,170.2,103.2,183.5c-15.3,9.6-55.4,36.3-88,57.4c-72.6,45.9-72.6,42.1-32.5,103.3c38.2,59.3,51.6,59.3,130,0c34.4-26.8,72.6-47.8,84.1-47.8c30.6,0,223.7,328.8,361.3,617.5l44,91.8l-91.8,40.1c-49.7,21-93.7,42-97.5,45.9c-7.6,5.7,36.3,122.3,45.9,122.3c3.8,0,47.8-17.2,97.5-38.2c49.7-22.9,95.6-32.5,103.3-24.9c24.8,26.8,152.9,409.1,202.6,596.5c51.6,202.7,51.6,200.7-82.2,221.8c-84.1,11.5-84.1,13.4-70.7,72.6c5.8,34.4,15.3,65,19.1,68.8c3.8,3.8,49.7-1.9,103.2-11.5c53.5-11.5,99.4-13.4,105.1-7.7c15.3,26.8,65,424.4,78.4,629L9900,62.6h-109H9684v66.9v66.9H9791h107.1l-13.4,216c-7.7,116.6-22.9,283-36.3,367.1c-22.9,168.2-24.9,170.2-175.9,139.6c-55.4-13.4-61.2-9.6-72.7,45.9c-15.3,78.4-7.6,86,103.2,101.3c53.5,7.6,95.6,17.2,95.6,21c0,59.3-189.3,720.8-223.7,776.2c-3.8,7.6-51.6-3.8-105.1-24.9c-53.5-21-99.4-34.4-101.3-32.5c-15.3,19.1-47.8,91.8-47.8,107.1c0,11.5,44,34.4,95.6,53.5c53.5,19.1,95.6,42.1,95.6,49.7c0,24.8-223.7,468.4-309.7,611.8l-76.5,128.1l-68.8-44c-40.2-22.9-80.3-49.7-93.7-55.4c-13.4-7.7-38.2,9.6-63.1,42.1l-40.1,57.4l87.9,49.7c47.8,28.7,86,59.3,86,70.7c0,36.3-260,370.9-434,556.3l-86,93.7l-74.6-72.7c-61.2-59.3-82.2-68.8-107.1-53.5c-76.5,47.8-74.6,80.3,1.9,158.7l74.6,76.5l-103.2,93.7c-145.3,131.9-219.9,193.1-355.6,298.2l-120.4,89.9l-61.2-87.9c-32.5-47.8-65-86-70.7-86c-5.7,0-32.5,17.2-59.3,38.2l-47.8,36.3l61.2,86l61.2,87.9l-80.3,53.5c-107.1,74.6-413,242.8-541,300.2l-103.2,45.9l-40.1-95.6c-22.9-51.6-49.7-93.7-59.3-93.7c-15.3,0-87.9,32.5-107.1,47.8c-1.9,1.9,13.4,44,36.3,95.6c21,49.7,32.5,97.5,22.9,105.2c-24.9,24.8-395.8,149.1-596.5,202.7c-202.6,51.6-200.7,51.6-221.8-84.1c-11.5-82.2-13.4-84.1-72.7-72.7c-32.5,5.7-61.2,15.3-66.9,19.1c-3.8,5.7,1.9,53.5,13.4,109c11.5,53.5,19.1,101.3,17.2,103.2c-15.3,13.4-451.2,66.9-630.9,78.4l-206.5,13.4v-109V4804H5000h-76.5v105.2v105.1l-118.5-1.9C4738.1,5010.4,4671.2,5006.6,4655.9,5004.7z M5508.6,3102.4c1217.8-208.4,2194.8-1149,2456.7-2366.8c26.8-131.9,42.1-286.8,49.7-529.6c11.5-413-24.9-682.5-145.3-1042c-158.7-470.3-369-808.7-738-1175.8c-443.5-445.5-913.8-701.7-1527.5-835.5c-166.3-36.3-250.4-42.1-604.1-42.1c-353.7,0-437.8,5.8-604.1,42.1c-397.7,86-759,239-1097.4,464.6c-244.7,162.5-638.5,556.3-801,801c-348,523.8-518.1,1080.2-518.1,1701.5c0,621.3,170.2,1177.7,518.1,1701.5c162.5,244.7,556.3,638.5,801,801.1c361.3,240.9,772.4,407.2,1177.7,478C4770.6,3152.2,5210.3,3154.1,5508.6,3102.4z"/></g></g>
</svg>