<?xml version="1.0" encoding="iso-8859-1"?>
<!-- Generator: Adobe Illustrator 19.0.0, SVG Export Plug-In . SVG Version: 6.00 Build 0)  -->
<svg version="1.1" id="Capa_1" xmlns="http://www.w3.org/2000/svg" xmlns:xlink="http://www.w3.org/1999/xlink" x="0px" y="0px"
	 viewBox="0 0 496 496" style="enable-background:new 0 0 496 496;" xml:space="preserve">
<g>
	<g>
		<g>
			<path d="M0,408c0,22.056,17.944,40,40,40h104v32h-32v16h272v-16h-32v-32h104c22.056,0,40-17.944,40-40v-24H0V408z M336,480H160
				v-32h176V480z M16,400h464v8c0,13.232-10.768,24-24,24H40c-13.232,0-24-10.768-24-24V400z"/>
			<path d="M456,72h-40v16h40c13.232,0,24,10.768,24,24v256h16V112C496,89.944,478.056,72,456,72z"/>
			<path d="M16,112c0-13.232,10.768-24,24-24h120V72H40C17.944,72,0,89.944,0,112v256h16V112z"/>
			<path d="M160,160H96v144H48v16h400v-16h-48V0h-64v304h-16v-80h-64v80h-16V72h-64v232h-16V160z M352,16h32v288h-32V16z M272,240
				h32v64h-32V240z M192,88h32v216h-32V88z M144,304h-32V176h32V304z"/>
			<rect x="80" y="336" width="336" height="16"/>
			<rect x="432" y="336" width="16" height="16"/>
			<rect x="48" y="336" width="16" height="16"/>
			<rect x="256" y="72" width="64" height="16"/>
		</g>
	</g>
</g>
<g>
</g>
<g>
</g>
<g>
</g>
<g>
</g>
<g>
</g>
<g>
</g>
<g>
</g>
<g>
</g>
<g>
</g>
<g>
</g>
<g>
</g>
<g>
</g>
<g>
</g>
<g>
</g>
<g>
</g>
</svg>
