<?xml version="1.0" encoding="iso-8859-1"?>
<!-- Generator: Adobe Illustrator 19.0.0, SVG Export Plug-In . SVG Version: 6.00 Build 0)  -->
<svg version="1.1" id="Capa_1" xmlns="http://www.w3.org/2000/svg" xmlns:xlink="http://www.w3.org/1999/xlink" x="0px" y="0px"
	 viewBox="0 0 496 496" style="enable-background:new 0 0 496 496;" xml:space="preserve">
<g>
	<g>
		<g>
			<path d="M0,208h400v-80H0V208z M16,144h368v48H16V144z"/>
			<rect x="32" y="160" width="16" height="16"/>
			<polygon points="384,480 16,480 16,224 0,224 0,496 400,496 400,224 384,224 			"/>
			<rect x="64" y="160" width="16" height="16"/>
			<rect x="96" y="160" width="16" height="16"/>
			<path d="M96,0v80h400V0H96z M480,64H112V16h368V64z"/>
			<rect x="128" y="32" width="16" height="16"/>
			<rect x="96" y="96" width="16" height="16"/>
			<polygon points="480,352 416,352 416,368 496,368 496,96 480,96 			"/>
			<rect x="160" y="32" width="16" height="16"/>
			<rect x="192" y="32" width="16" height="16"/>
			<path d="M176,424c0,13.232,10.768,24,24,24s24-10.768,24-24s-10.768-24-24-24S176,410.768,176,424z M208,424c0,4.416-3.592,8-8,8
				s-8-3.584-8-8c0-4.416,3.592-8,8-8S208,419.584,208,424z"/>
			<polygon points="293.984,421.312 362.704,344 293.984,266.688 282.016,277.312 341.296,344 282.016,410.688 			"/>
			<polygon points="106.016,266.688 37.296,344 106.016,421.312 117.984,410.688 58.704,344 117.984,277.312 			"/>
			<path d="M254.752,292.04c-4.416-21.176-21.616-38.376-42.792-42.792c-16.896-3.512-34.12,0.592-47.272,11.288
				C151.544,271.224,144,287.072,144,304c0,15.832,6.8,31.024,18.656,41.656l10.688-11.904C164.864,326.144,160,315.296,160,304
				c0-12.096,5.392-23.416,14.784-31.056c9.4-7.632,21.768-10.552,33.912-8.04c15.04,3.144,27.256,15.352,30.392,30.4
				c4.408,21.16-8.28,41.968-28.888,47.392c-10.712,2.808-18.2,12.368-18.2,23.232V392h16v-26.072c0-3.656,2.512-6.784,6.264-7.768
				C243.12,350.584,260.904,321.536,254.752,292.04z"/>
		</g>
	</g>
</g>
<g>
</g>
<g>
</g>
<g>
</g>
<g>
</g>
<g>
</g>
<g>
</g>
<g>
</g>
<g>
</g>
<g>
</g>
<g>
</g>
<g>
</g>
<g>
</g>
<g>
</g>
<g>
</g>
<g>
</g>
</svg>
