<?xml version="1.0" encoding="iso-8859-1"?>
<!-- Generator: Adobe Illustrator 19.0.0, SVG Export Plug-In . SVG Version: 6.00 Build 0)  -->
<svg version="1.1" id="Capa_1" xmlns="http://www.w3.org/2000/svg" xmlns:xlink="http://www.w3.org/1999/xlink" x="0px" y="0px"
	 viewBox="0 0 496 496" style="enable-background:new 0 0 496 496;" xml:space="preserve">
<g>
	<g>
		<g>
			<path d="M411.32,192H304V0H96H0v80v224h192v192h304V276.68L411.32,192z M312,208h16v16h16v-16h16v40c0,4.408-3.592,8-8,8h-8v-16
				h-16v16h-16V208z M16,16h64v48H16V16z M192,288H16V80h80V16h192v176h-96V288z M296,208v48h-32c-4.408,0-8-3.592-8-8v-40H296z
				 M448,480H240V320h208V480z M480,480h-16V304H224v176h-16V208h32v40c0,13.232,10.768,24,24,24h88c13.232,0,24-10.768,24-24v-40
				h28.688L480,283.312V480z"/>
			<rect x="256" y="336" width="176" height="16"/>
			<rect x="256" y="368" width="176" height="16"/>
			<rect x="416" y="400" width="16" height="16"/>
			<rect x="256" y="400" width="144" height="16"/>
			<rect x="256" y="432" width="176" height="16"/>
			<rect x="32" y="32" width="32" height="16"/>
			<path d="M152,88c-13.232,0-24,10.768-24,24s10.768,24,24,24s24-10.768,24-24S165.232,88,152,88z M152,120c-4.408,0-8-3.592-8-8
				s3.592-8,8-8s8,3.592,8,8S156.408,120,152,120z"/>
			<path d="M152,56c-30.88,0-56,25.12-56,56s25.12,56,56,56s56-25.12,56-56S182.88,56,152,56z M152,152c-22.056,0-40-17.944-40-40
				c0-22.056,17.944-40,40-40c22.056,0,40,17.944,40,40C192,134.056,174.056,152,152,152z"/>
			<path d="M152,192c-13.232,0-24,10.768-24,24v32c0,13.232,10.768,24,24,24s24-10.768,24-24v-32C176,202.768,165.232,192,152,192z
				 M160,248c0,4.408-3.592,8-8,8s-8-3.592-8-8v-32c0-4.408,3.592-8,8-8s8,3.592,8,8V248z"/>
		</g>
	</g>
</g>
<g>
</g>
<g>
</g>
<g>
</g>
<g>
</g>
<g>
</g>
<g>
</g>
<g>
</g>
<g>
</g>
<g>
</g>
<g>
</g>
<g>
</g>
<g>
</g>
<g>
</g>
<g>
</g>
<g>
</g>
</svg>
