<?xml version="1.0" encoding="iso-8859-1"?>
<!-- Generator: Adobe Illustrator 19.0.0, SVG Export Plug-In . SVG Version: 6.00 Build 0)  -->
<svg version="1.1" id="Capa_1" xmlns="http://www.w3.org/2000/svg" xmlns:xlink="http://www.w3.org/1999/xlink" x="0px" y="0px"
	 viewBox="0 0 502.664 502.664" style="enable-background:new 0 0 502.664 502.664;" xml:space="preserve">
<g>
	<g>
		<g>
			<path style="fill:#010002;" d="M251.33,0C149.753,0,67.461,29.725,67.461,66.416v97.22c0,36.692,82.293,66.438,183.869,66.438
				s183.869-29.746,183.869-66.438v-97.22C435.243,29.725,352.907,0,251.33,0z M251.33,119.481
				c-81.171,0-146.962-23.771-146.962-53.064c0-29.315,65.812-53.064,146.962-53.064c81.214,0,146.94,23.749,146.94,53.064
				C398.292,95.731,332.544,119.481,251.33,119.481z"/>
			<path style="fill:#010002;" d="M251.352,258.634c-97.09,0-176.449-27.222-183.265-61.649c-0.302,1.596-0.626,3.149-0.626,4.767
				v97.241c0,36.692,82.293,66.438,183.869,66.438s183.869-29.725,183.869-66.438v-97.241c0.043-1.618-0.302-3.149-0.582-4.767
				C427.844,231.454,348.442,258.634,251.352,258.634z"/>
			<path style="fill:#010002;" d="M251.352,395.932c-97.09,0-176.449-27.201-183.265-61.649c-0.302,1.553-0.626,3.128-0.626,4.767
				v97.198c0,36.692,82.293,66.416,183.869,66.416s183.869-29.725,183.869-66.416V339.05c0.043-1.639-0.302-3.214-0.582-4.789
				C427.844,368.731,348.442,395.932,251.352,395.932z"/>
		</g>
	</g>
	<g>
	</g>
	<g>
	</g>
	<g>
	</g>
	<g>
	</g>
	<g>
	</g>
	<g>
	</g>
	<g>
	</g>
	<g>
	</g>
	<g>
	</g>
	<g>
	</g>
	<g>
	</g>
	<g>
	</g>
	<g>
	</g>
	<g>
	</g>
	<g>
	</g>
</g>
<g>
</g>
<g>
</g>
<g>
</g>
<g>
</g>
<g>
</g>
<g>
</g>
<g>
</g>
<g>
</g>
<g>
</g>
<g>
</g>
<g>
</g>
<g>
</g>
<g>
</g>
<g>
</g>
<g>
</g>
</svg>
