<svg height="496pt" viewBox="0 0 496 496" width="496pt" xmlns="http://www.w3.org/2000/svg"><path d="m32 320h16v16h-16zm0 0"/><path d="m64 320h16v16h-16zm0 0"/><path d="m96 384h16v16h-16zm0 0"/><path d="m64 384h16v16h-16zm0 0"/><path d="m64 448h16v16h-16zm0 0"/><path d="m96 448h16v16h-16zm0 0"/><path d="m32 448h16v16h-16zm0 0"/><path d="m208 320h16v16h-16zm0 0"/><path d="m240 320h16v16h-16zm0 0"/><path d="m272 384h16v16h-16zm0 0"/><path d="m240 384h16v16h-16zm0 0"/><path d="m240 448h16v16h-16zm0 0"/><path d="m272 448h16v16h-16zm0 0"/><path d="m208 448h16v16h-16zm0 0"/><path d="m472 288h-40v-48h-176v-32h128c35.289062 0 64-28.710938 64-64s-28.710938-64-64-64c-3.59375 0-7.167969.304688-10.695312.902344-10.632813-46.695313-52.730469-80.902344-101.304688-80.902344-33.640625 0-64.664062 16.007812-84.230469 43.152344-6.394531-2.097656-13.007812-3.152344-19.769531-3.152344-26.097656 0-49.6875 16.207031-59.34375 40.089844-33.746094 1.742187-60.65625 29.742187-60.65625 63.910156 0 35.289062 28.710938 64 64 64h128v32h-176v48h-40c-13.230469 0-24 10.769531-24 24v160c0 13.230469 10.769531 24 24 24h96c13.230469 0 24-10.769531 24-24v-160c0-13.230469-10.769531-24-24-24h-40v-32h160v32h-40c-13.230469 0-24 10.769531-24 24v160c0 13.230469 10.769531 24 24 24h96c13.230469 0 24-10.769531 24-24v-160c0-13.230469-10.769531-24-24-24h-40v-32h160v32h-40c-13.230469 0-24 10.769531-24 24v160c0 13.230469 10.769531 24 24 24h96c13.230469 0 24-10.769531 24-24v-160c0-13.230469-10.769531-24-24-24zm-408-144c0-26.472656 21.527344-48 48-48l8.222656.359375 1.769532-5.984375c5.984374-20.230469 24.894531-34.375 46.007812-34.375 6.753906 0 13.328125 1.414062 19.558594 4.199219l6.328125 2.832031 3.707031-5.863281c16.269531-25.777344 44.085938-41.167969 74.40625-41.167969 43.59375 0 81.015625 32.566406 87.046875 75.761719l1.3125 9.398437 9.039063-2.886718c4.746093-1.503907 9.648437-2.273438 14.601562-2.273438 26.472656 0 48 21.527344 48 48s-21.527344 48-48 48h-272c-26.472656 0-48-21.527344-48-48zm-48 224h112v48h-112zm104 112h-96c-4.414062 0-8-3.585938-8-8v-40h112v40c0 4.414062-3.585938 8-8 8zm8-168v40h-112v-40c0-4.414062 3.585938-8 8-8h96c4.414062 0 8 3.585938 8 8zm64 56h112v48h-112zm104 112h-96c-4.414062 0-8-3.585938-8-8v-40h112v40c0 4.414062-3.585938 8-8 8zm8-168v40h-112v-40c0-4.414062 3.585938-8 8-8h96c4.414062 0 8 3.585938 8 8zm72-8h96c4.414062 0 8 3.585938 8 8v40h-112v-40c0-4.414062 3.585938-8 8-8zm104 64v48h-112v-48zm-8 112h-96c-4.414062 0-8-3.585938-8-8v-40h112v40c0 4.414062-3.585938 8-8 8zm0 0"/><path d="m384 320h16v16h-16zm0 0"/><path d="m416 320h16v16h-16zm0 0"/><path d="m448 384h16v16h-16zm0 0"/><path d="m416 384h16v16h-16zm0 0"/><path d="m416 448h16v16h-16zm0 0"/><path d="m448 448h16v16h-16zm0 0"/><path d="m384 448h16v16h-16zm0 0"/><path d="m221.089844 53.089844 11.308594 11.308594c21.839843-21.832032 57.363281-21.832032 79.203124 0l11.308594-11.308594c-28.078125-28.074219-73.742187-28.074219-101.820312 0zm0 0"/><path d="m416 144c0-17.648438-14.351562-32-32-32v16c8.824219 0 16 7.175781 16 16s-7.175781 16-16 16v16c17.648438 0 32-14.351562 32-32zm0 0"/></svg>