<?xml version="1.0" encoding="iso-8859-1"?>
<!-- Generator: Adobe Illustrator 16.0.0, SVG Export Plug-In . SVG Version: 6.00 Build 0)  -->
<!DOCTYPE svg PUBLIC "-//W3C//DTD SVG 1.1//EN" "http://www.w3.org/Graphics/SVG/1.1/DTD/svg11.dtd">
<svg version="1.1" id="Capa_1" xmlns="http://www.w3.org/2000/svg" xmlns:xlink="http://www.w3.org/1999/xlink" x="0px" y="0px"
	 width="105.184px" height="105.184px" viewBox="0 0 105.184 105.184" style="enable-background:new 0 0 105.184 105.184;"
	 xml:space="preserve">
<g>
	<g>
		<path d="M85.551,62.989l-1.53-47.782h-7.689l-1.827,47.782H69.72l0.007-7.248l-12.443,6.697l0.007-7.111l-12.682,6.718
			l0.007-6.304l-12.443,6.697l0.007-7.111l-15.899,8.415v41.442h41.6V93.737h21.614v11.447h9.411V62.989H85.551z M33.202,76.568
			H22.251v-7.155h10.951V76.568z M49.266,76.568H38.314v-7.155h10.951V76.568z M65.322,76.568H54.371v-7.155h10.951V76.568z
			 M81.386,76.568H70.435v-7.155h10.951V76.568z"/>
		<path d="M56.214,11.114c-0.84-0.046-1.672-0.189-2.428-0.368c-3.06-0.786-5.12-1.906-5.12-1.906s0.315,0.479,1.013,1.211
			c0.703,0.722,1.786,1.715,3.374,2.562c0.789,0.424,1.688,0.846,2.736,1.076c1.028,0.274,2.212,0.428,3.431,0.274
			c2.478-0.174,4.948-1.612,6.625-3.458c0.698-0.674,1.554-1.822,2.184-2.212c0.626-0.508,1.39-1.09,2.169-1.331
			c1.547-0.639,3.252-0.606,4.75-0.234c1.485,0.368,2.745,0.936,3.607,1.37c0.869,0.438,1.362,0.743,1.362,0.743
			s-0.274-0.511-0.924-1.29c-0.661-0.763-1.698-1.829-3.313-2.698c-0.801-0.441-1.766-0.81-2.86-1.003
			c-1.089-0.147-2.334-0.212-3.532,0.163c-0.622,0.135-1.211,0.357-1.772,0.659c-0.596,0.235-1.143,0.609-1.67,1.037
			c-1.184,0.859-1.643,1.562-2.566,2.411c-1.267,1.468-2.841,2.421-4.518,2.8C57.925,11.097,57.056,11.181,56.214,11.114z"/>
		<path d="M32.353,8.881c0.789,0.424,1.697,0.845,2.745,1.076c1.027,0.273,2.204,0.428,3.424,0.273
			c2.484-0.174,4.955-1.612,6.634-3.46c0.696-0.672,1.545-1.82,2.184-2.21c0.616-0.508,1.388-1.09,2.168-1.331
			c1.547-0.638,3.252-0.606,4.744-0.234c1.494,0.368,2.745,0.936,3.614,1.371c0.869,0.438,1.355,0.742,1.355,0.742
			s-0.267-0.511-0.924-1.29c-0.659-0.763-1.689-1.829-3.313-2.698c-0.802-0.441-1.759-0.81-2.852-1.003
			c-1.09-0.147-2.333-0.214-3.539,0.163c-0.618,0.135-1.206,0.356-1.766,0.659c-0.596,0.234-1.143,0.609-1.672,1.037
			c-1.192,0.857-1.651,1.562-2.565,2.411c-1.266,1.468-2.849,2.421-4.517,2.799c-0.835,0.183-1.704,0.267-2.555,0.2
			c-0.842-0.046-1.672-0.19-2.428-0.368c-3.053-0.785-5.115-1.906-5.115-1.906s0.317,0.479,1.013,1.211
			C29.688,7.042,30.774,8.034,32.353,8.881z"/>
	</g>
</g>
<g>
</g>
<g>
</g>
<g>
</g>
<g>
</g>
<g>
</g>
<g>
</g>
<g>
</g>
<g>
</g>
<g>
</g>
<g>
</g>
<g>
</g>
<g>
</g>
<g>
</g>
<g>
</g>
<g>
</g>
</svg>
