<?xml version="1.0" encoding="iso-8859-1"?>
<!-- Generator: Adobe Illustrator 19.0.0, SVG Export Plug-In . SVG Version: 6.00 Build 0)  -->
<svg version="1.1" id="Capa_1" xmlns="http://www.w3.org/2000/svg" xmlns:xlink="http://www.w3.org/1999/xlink" x="0px" y="0px"
	 viewBox="0 0 496 496" style="enable-background:new 0 0 496 496;" xml:space="preserve">
<g>
	<g>
		<g>
			<path d="M352,416v16h128v24c0,13.232-10.768,24-24,24H40c-13.232,0-24-10.768-24-24v-24h128v-16H0v40c0,22.056,17.944,40,40,40
				h416c22.056,0,40-17.944,40-40v-40H352z"/>
			<path d="M160,440c0,13.232,10.768,24,24,24h128c13.232,0,24-10.768,24-24v-24H160V440z M176,432h144v8c0,4.408-3.592,8-8,8H184
				c-4.408,0-8-3.592-8-8V432z"/>
			<rect x="48" y="448" width="16" height="16"/>
			<rect x="80" y="448" width="16" height="16"/>
			<rect x="112" y="448" width="16" height="16"/>
			<path d="M464,128v272h16V128c0-22.056-17.944-40-40-40h-40v16h40C453.232,104,464,114.768,464,128z"/>
			<path d="M32,128c0-13.232,10.768-24,24-24h40V88H56c-22.056,0-40,17.944-40,40v272h16V128z"/>
			<path d="M432,400h16V136c0-8.824-7.176-16-16-16h-32v16h32V400z"/>
			<path d="M96,120H64c-8.824,0-16,7.176-16,16v264h16V136h32V120z"/>
			<path d="M104,224c-13.232,0-24,10.768-24,24s10.768,24,24,24c4.384,0,8.44-1.264,11.976-3.328L165.44,304H240v16H126.528
				c-3.312-9.288-12.112-16-22.528-16c-13.232,0-24,10.768-24,24s10.768,24,24,24c10.416,0,19.216-6.712,22.528-16H240v19.72
				L221.576,368H198.52c-3.312-9.288-12.112-16-22.528-16c-13.232,0-24,10.768-24,24s10.768,24,24,24
				c10.416,0,19.216-6.712,22.528-16h27.896L248,369.616L269.576,384h27.896c3.312,9.288,12.112,16,22.528,16
				c13.232,0,24-10.768,24-24s-10.768-24-24-24c-10.416,0-19.216,6.712-22.528,16h-23.056L256,355.72V336h113.472
				c3.312,9.288,12.112,16,22.528,16c13.232,0,24-10.768,24-24s-10.768-24-24-24c-10.416,0-19.216,6.712-22.528,16H256v-16h74.56
				l49.456-35.328c3.544,2.064,7.6,3.328,11.984,3.328c13.232,0,24-10.768,24-24s-10.768-24-24-24s-24,10.768-24,24
				c0,2.984,0.616,5.808,1.616,8.448L325.44,288H256v-16.408c71.264-4.176,128-63.304,128-135.592C384,61.008,322.992,0,248,0
				S112,61.008,112,136c0,72.288,56.736,131.416,128,135.592V288h-69.44l-44.176-31.552c1-2.64,1.616-5.464,1.616-8.448
				C128,234.768,117.232,224,104,224z M104,256c-4.408,0-8-3.592-8-8c0-4.408,3.592-8,8-8s8,3.592,8,8S108.408,256,104,256z
				 M104,336c-4.408,0-8-3.592-8-8c0-4.408,3.592-8,8-8s8,3.592,8,8C112,332.408,108.408,336,104,336z M176,384
				c-4.408,0-8-3.592-8-8c0-4.408,3.592-8,8-8s8,3.592,8,8C184,380.408,180.408,384,176,384z M320,368c4.408,0,8,3.592,8,8
				c0,4.408-3.592,8-8,8c-4.408,0-8-3.592-8-8C312,371.592,315.592,368,320,368z M392,320c4.408,0,8,3.592,8,8c0,4.408-3.592,8-8,8
				c-4.408,0-8-3.592-8-8C384,323.592,387.592,320,392,320z M392,240c4.408,0,8,3.592,8,8s-3.592,8-8,8c-4.408,0-8-3.592-8-8
				C384,243.592,387.592,240,392,240z M128,136c0-66.168,53.832-120,120-120s120,53.832,120,120s-53.832,120-120,120
				S128,202.168,128,136z"/>
			<path d="M295.28,192h12.44l13.624,20.44l13.312-8.872L316.28,176H296v-16h27.72l13.624,20.44l13.312-8.872L332.28,144H296v-24
				c0-18.312-10.312-34.248-25.432-42.336L288,68.944V40h-16v19.056l-24,12l-24-12V40h-16v28.944l17.432,8.712
				C210.312,85.752,200,101.688,200,120v24h-36.28l-18.376,27.56l13.312,8.872L172.28,160H200v16h-20.28l-18.376,27.56l13.312,8.872
				L188.28,192h12.44c3.832,22.664,23.544,40,47.28,40C271.736,232,291.448,214.664,295.28,192z M248,88c17.648,0,32,14.352,32,32
				h-64C216,102.352,230.352,88,248,88z M240,214.864c-13.76-3.576-24-16-24-30.864v-48h64v48c0,14.864-10.24,27.288-24,30.864V152
				h-16V214.864z"/>
		</g>
	</g>
</g>
<g>
</g>
<g>
</g>
<g>
</g>
<g>
</g>
<g>
</g>
<g>
</g>
<g>
</g>
<g>
</g>
<g>
</g>
<g>
</g>
<g>
</g>
<g>
</g>
<g>
</g>
<g>
</g>
<g>
</g>
</svg>
