<?xml version="1.0" encoding="iso-8859-1"?>
<!-- Generator: Adobe Illustrator 16.0.0, SVG Export Plug-In . SVG Version: 6.00 Build 0)  -->
<!DOCTYPE svg PUBLIC "-//W3C//DTD SVG 1.1//EN" "http://www.w3.org/Graphics/SVG/1.1/DTD/svg11.dtd">
<svg version="1.1" id="Capa_1" xmlns="http://www.w3.org/2000/svg" xmlns:xlink="http://www.w3.org/1999/xlink" x="0px" y="0px"
	 width="603.918px" height="603.919px" viewBox="0 0 603.918 603.919" style="enable-background:new 0 0 603.918 603.919;"
	 xml:space="preserve">
<g>
	<g>
		<path d="M259.238,566.56c2.815,21.062,20.9,37.359,42.721,37.359s39.905-16.298,42.721-37.359
			c21.061-2.815,37.359-20.9,37.359-42.721v-88.278c57.127-30.089,92.449-88.018,92.449-152.091
			c0-95.132-77.396-172.529-172.533-172.529c-95.136,0-172.529,77.394-172.529,172.526c0,64.074,35.325,122.005,92.449,152.091
			v88.278C221.879,545.659,238.176,563.744,259.238,566.56z M301.959,160.158c67.993,0,123.311,55.315,123.311,123.309
			c0,46.561-26.297,88.636-68.625,109.802l-20.441,10.221l-3.385,1.691v3.782v34.796h-61.72v-34.796v-3.782l-3.384-1.691
			l-20.44-10.221c-42.332-21.166-68.627-63.238-68.627-109.802C178.647,215.473,233.966,160.158,301.959,160.158z M332.819,492.979
			v24.74h-61.72v-24.74H332.819z"/>
		<path d="M277.351,24.609v55.468c0,13.571,11.041,24.609,24.608,24.609c13.569,0,24.608-11.041,24.608-24.609V24.609
			C326.567,11.038,315.528,0,301.959,0C288.391,0,277.351,11.038,277.351,24.609z"/>
		<path d="M490.354,203.126l48.104-27.754c5.703-3.305,9.773-8.617,11.471-14.963c1.703-6.356,0.82-12.993-2.48-18.685
			c-4.309-7.57-12.477-12.301-21.295-12.301l0,0c-4.293,0-8.541,1.129-12.279,3.268l-48.092,27.785
			c-5.693,3.277-9.773,8.593-11.471,14.96c-1.695,6.359-0.812,12.987,2.49,18.663c4.305,7.558,12.473,12.286,21.285,12.286
			C482.362,206.382,486.606,205.256,490.354,203.126z"/>
		<path d="M379.879,113.71c1.701,6.35,5.777,11.655,11.475,14.936c3.725,2.161,7.982,3.308,12.299,3.308
			c8.785,0,16.951-4.722,21.307-12.323l27.727-48.051c3.291-5.655,4.176-12.283,2.479-18.641
			c-1.699-6.368-5.777-11.68-11.482-14.964c-3.744-2.133-7.975-3.252-12.254-3.252l0,0c-8.799,0-16.975,4.694-21.342,12.249
			l-27.734,48.07C379.061,100.723,378.18,107.36,379.879,113.71z"/>
		<path d="M77.802,437.51c4.339,0,8.599-1.153,12.311-3.335l48.023-27.709c5.695-3.277,9.771-8.58,11.472-14.93
			c1.701-6.353,0.82-12.986-2.482-18.681c-4.403-7.595-12.577-12.313-21.334-12.313l0,0c-4.32,0-8.577,1.159-12.307,3.354
			l-48.023,27.708c-11.726,6.778-15.762,21.849-9,33.599C60.868,432.798,69.041,437.51,77.802,437.51z"/>
		<path d="M43.098,308.078H98.57c13.571,0,24.609-11.041,24.609-24.608c0-13.568-11.041-24.609-24.609-24.609H43.098
			c-13.571,0-24.611,11.041-24.611,24.609C18.487,297.038,29.527,308.078,43.098,308.078z"/>
		<path d="M138.157,160.5l-48.085-27.797c-3.712-2.16-7.956-3.308-12.258-3.308l0,0c-8.788,0-16.971,4.73-21.35,12.341
			c-6.75,11.729-2.72,26.812,8.978,33.624l48.125,27.748c3.727,2.163,7.987,3.311,12.301,3.311c8.764,0,16.937-4.713,21.332-12.298
			c3.301-5.698,4.183-12.335,2.475-18.685C147.968,169.083,143.879,163.781,138.157,160.5z"/>
		<path d="M172.469,34.67L172.469,34.67c-4.308,0-8.553,1.151-12.271,3.323c-5.661,3.259-9.737,8.565-11.444,14.924
			c-1.708,6.355-0.838,12.983,2.445,18.666l27.699,47.956c4.397,7.592,12.57,12.304,21.334,12.304c4.299,0,8.541-1.132,12.261-3.271
			c5.722-3.302,9.804-8.608,11.509-14.948c1.705-6.343,0.826-12.983-2.469-18.696l-27.663-47.957
			C189.409,39.37,181.217,34.67,172.469,34.67z"/>
		<path d="M526.151,437.51c8.785,0,16.949-4.722,21.307-12.319c3.285-5.67,4.166-12.305,2.465-18.657
			c-1.701-6.35-5.777-11.655-11.475-14.936l-48.098-27.767c-3.723-2.151-7.965-3.289-12.264-3.289l0,0
			c-8.785,0-16.961,4.706-21.338,12.282c-3.295,5.688-4.176,12.326-2.475,18.679c1.701,6.35,5.777,11.652,11.475,14.933
			l48.098,27.767C517.579,436.362,521.834,437.51,526.151,437.51z"/>
		<path d="M585.432,283.47c0-13.571-11.041-24.609-24.609-24.609h-55.471c-13.572,0-24.613,11.041-24.613,24.609
			c0,13.568,11.041,24.608,24.613,24.608h55.471C574.391,308.078,585.432,297.038,585.432,283.47z"/>
		<path d="M258.522,302.955h7.687c5.07,0,8.647,4.076,7.993,9.104l-8.191,62.746c-0.658,5.027,1.291,5.826,4.354,1.783
			l78.675-103.887c3.061-4.042,1.434-7.319-3.639-7.319h-14.328c-5.072,0-7.77-3.859-6.029-8.623l23.293-63.706
			c1.74-4.762-0.957-8.623-6.027-8.623h-40.454c-5.07,0-10.591,3.858-12.332,8.623l-37.029,101.28
			C250.753,299.094,253.452,302.955,258.522,302.955z"/>
	</g>
</g>
<g>
</g>
<g>
</g>
<g>
</g>
<g>
</g>
<g>
</g>
<g>
</g>
<g>
</g>
<g>
</g>
<g>
</g>
<g>
</g>
<g>
</g>
<g>
</g>
<g>
</g>
<g>
</g>
<g>
</g>
</svg>
