<?xml version="1.0" encoding="iso-8859-1"?>
<!-- Generator: Adobe Illustrator 19.0.0, SVG Export Plug-In . SVG Version: 6.00 Build 0)  -->
<svg version="1.1" id="Capa_1" xmlns="http://www.w3.org/2000/svg" xmlns:xlink="http://www.w3.org/1999/xlink" x="0px" y="0px"
	 viewBox="0 0 496 496" style="enable-background:new 0 0 496 496;" xml:space="preserve">
<g>
	<g>
		<g>
			<path d="M75.976,232.488l8.016-13.84C71.664,211.504,64,198.224,64,184c0-22.056,17.944-40,40-40c0.184,0,0.36,0.04,0.544,0.048
				c0.84,6.712,2.688,13.216,5.624,19.4l14.456-6.856C121.552,150.128,120,143.2,120,136c0-26.472,21.528-48,48-48
				c5.624,0,11.072,0.984,16.264,2.856C184.168,92.568,184,94.264,184,96c0,2.936,0.136,5.84,0.392,8.704l15.936-1.416
				C200.12,100.888,200,98.456,200,96c0-44.112,35.888-80,80-80c38.912,0,71.32,27.24,78.504,64.584
				c-20.624,2.44-39.464,12.736-52.728,29.128l12.44,10.064C330.44,104.664,348.584,96,368,96c35.288,0,64,28.712,64,64
				c0,21.4-10.632,41.304-28.456,53.224l8.904,13.296C434.712,211.624,448,186.752,448,160c0-41.864-32.344-76.264-73.344-79.664
				C367.144,34.088,327.656,0,280,0c-45.64,0-83.864,32.04-93.56,74.784C180.496,72.992,174.336,72,168,72
				c-32.592,0-59.512,24.504-63.448,56.048C104.368,128.04,104.184,128,104,128c-30.872,0-56,25.12-56,56
				C48,203.92,58.72,222.496,75.976,232.488z"/>
			<path d="M472,320h-72v-72c0-22.056-17.944-40-40-40h-56.64c-3.904-27.096-27.208-48-55.36-48s-51.456,20.904-55.36,48H136
				c-22.056,0-40,17.944-40,40v72H24c-13.232,0-24,10.768-24,24v96c0,13.232,10.768,24,24,24h40v16H32v16h144v-16h-32v-16h40
				c13.232,0,24-10.768,24-24v-96c0-13.232-10.768-24-24-24h-72v-72c0-13.232,10.768-24,24-24h56.64
				c3.904,27.096,27.208,48,55.36,48c28.152,0,51.456-20.904,55.36-48H360c13.232,0,24,10.768,24,24v72h-72
				c-13.232,0-24,10.768-24,24v96c0,13.232,10.768,24,24,24h40v16h-32v16h144v-16h-32v-16h40c13.232,0,24-10.768,24-24v-96
				C496,330.768,485.232,320,472,320z M128,480H80v-16h48V480z M192,440c0,4.416-3.584,8-8,8H24c-4.416,0-8-3.584-8-8v-8h176V440z
				 M184,336c4.416,0,8,3.584,8,8v72H16v-72c0-4.416,3.584-8,8-8H184z M248,256c-22.056,0-40-17.944-40-40c0-22.056,17.944-40,40-40
				c22.056,0,40,17.944,40,40C288,238.056,270.056,256,248,256z M416,480h-48v-16h48V480z M480,440c0,4.416-3.584,8-8,8H312
				c-4.416,0-8-3.584-8-8v-8h176V440z M480,416H304v-72c0-4.416,3.584-8,8-8h160c4.416,0,8,3.584,8,8V416z"/>
			<path d="M248,192c-13.232,0-24,10.768-24,24s10.768,24,24,24s24-10.768,24-24S261.232,192,248,192z M248,224
				c-4.416,0-8-3.592-8-8s3.584-8,8-8s8,3.592,8,8S252.416,224,248,224z"/>
		</g>
	</g>
</g>
<g>
</g>
<g>
</g>
<g>
</g>
<g>
</g>
<g>
</g>
<g>
</g>
<g>
</g>
<g>
</g>
<g>
</g>
<g>
</g>
<g>
</g>
<g>
</g>
<g>
</g>
<g>
</g>
<g>
</g>
</svg>
