<?xml version="1.0" encoding="iso-8859-1"?>
<!-- Generator: Adobe Illustrator 19.0.0, SVG Export Plug-In . SVG Version: 6.00 Build 0)  -->
<svg version="1.1" id="Capa_1" xmlns="http://www.w3.org/2000/svg" xmlns:xlink="http://www.w3.org/1999/xlink" x="0px" y="0px"
	 viewBox="0 0 496 496" style="enable-background:new 0 0 496 496;" xml:space="preserve">
<g>
	<g>
		<g>
			<path d="M480,448v-24v-8v-72c0-13.232-10.768-24-24-24h-40V24c0-13.232-10.768-24-24-24H104C90.768,0,80,10.768,80,24v320
				c0,10.416,6.712,19.216,16,22.528V400h304v-33.472c9.288-3.312,16-12.112,16-22.528v-8h40c4.416,0,8,3.584,8,8v72H16v32H0v48h496
				v-48H480z M400,344c0,4.416-3.584,8-8,8h-24v16h16v16H112v-16h240v-16H104c-4.416,0-8-3.584-8-8V24c0-4.408,3.584-8,8-8h288
				c4.416,0,8,3.592,8,8V344z M448,432h16v16h-16V432z M416,432h16v16h-16V432z M384,432h16v16h-16V432z M352,432h16v16h-16V432z
				 M320,432h16v16h-16V432z M288,432h16v16h-16V432z M256,432h16v16h-16V432z M224,432h16v16h-16V432z M192,432h16v16h-16V432z
				 M160,432h16v16h-16V432z M128,432h16v16h-16V432z M96,432h16v16H96V432z M64,432h16v16H64V432z M32,432h16v16H32V432z M480,480
				H16v-16h464V480z"/>
			<path d="M112,240h272V32H112V240z M128,48h240v176H128V48z"/>
			<rect x="144" y="64" width="16" height="16"/>
			<rect x="176" y="64" width="128" height="16"/>
			<path d="M288,272h-80v16h80v16h96v-48h-96V272z M304,272h64v16h-64V272z"/>
		</g>
	</g>
</g>
<g>
</g>
<g>
</g>
<g>
</g>
<g>
</g>
<g>
</g>
<g>
</g>
<g>
</g>
<g>
</g>
<g>
</g>
<g>
</g>
<g>
</g>
<g>
</g>
<g>
</g>
<g>
</g>
<g>
</g>
</svg>
