<?xml version="1.0" encoding="iso-8859-1"?>
<!-- Generator: Adobe Illustrator 16.0.0, SVG Export Plug-In . SVG Version: 6.00 Build 0)  -->
<!DOCTYPE svg PUBLIC "-//W3C//DTD SVG 1.1//EN" "http://www.w3.org/Graphics/SVG/1.1/DTD/svg11.dtd">
<svg version="1.1" id="Capa_1" xmlns="http://www.w3.org/2000/svg" xmlns:xlink="http://www.w3.org/1999/xlink" x="0px" y="0px"
	 width="211.007px" height="211.007px" viewBox="0 0 211.007 211.007" style="enable-background:new 0 0 211.007 211.007;"
	 xml:space="preserve">
<g>
	<g>
		<path d="M116.887,58.324c8.343-5.611,14.097-16.687,14.097-26.655c0-14.075-11.411-25.477-25.471-25.477
			c-14.066,0-25.478,11.401-25.478,25.477c0,9.968,5.749,21.044,14.097,26.655c-19.957,5.063-34.748,22.384-34.748,35.223
			c0,15.175,92.26,15.175,92.26,0C151.632,80.708,136.848,63.388,116.887,58.324z M105.506,104.928L92.58,92.007l10.881-26.293
			h-0.112l-4.226-4.847c2.046,0.737,4.177,1.172,6.384,1.172c2.211,0,4.33-0.436,6.376-1.172l-4.226,4.847h-0.11l10.876,26.293
			L105.506,104.928z"/>
		<g>
			<g>
				<g>
					<path d="M83.053,164.692c2.707,0,4.901-3.129,4.901-5.833c0-2.71-2.201-4.896-4.901-4.896c-2.701,0-4.896,2.186-4.896,4.896
						C78.157,161.563,80.353,164.692,83.053,164.692z"/>
					<path d="M92.637,168.103c-0.03-0.146-0.07-0.279-0.131-0.414c-0.058-0.098-0.125-0.17-0.188-0.256
						c-0.092-0.121-0.167-0.23-0.28-0.334c-0.085-0.074-0.18-0.116-0.286-0.178c-0.095-0.061-0.18-0.133-0.286-0.182
						c-0.167-0.062-4.071-1.449-7.657-1.633l-0.487,0.98h-0.012l1.303,10.15l-1.553,2.704l-1.547-2.704l1.31-10.15h-0.019
						l-0.493-0.98c-3.577,0.184-7.475,1.571-7.648,1.633c-0.113,0.049-0.201,0.121-0.295,0.182c-0.097,0.062-0.198,0.104-0.28,0.178
						c-0.113,0.104-0.192,0.219-0.28,0.334c-0.07,0.086-0.131,0.152-0.18,0.244c-0.07,0.134-0.101,0.279-0.131,0.42
						c-0.027,0.085-0.082,0.164-0.088,0.25l-1.571,13.943c-0.113,1.061,0.648,2.021,1.708,2.144
						c0.076,0.007,0.143,0.007,0.225,0.007c0.971,0,1.809-0.737,1.918-1.718l1.41-12.696c0.165-0.048,0.344-0.104,0.53-0.158v13.214
						l-1.537,19.156c-0.101,1.272,0.852,2.388,2.131,2.497c0.067,0.006,0.125,0.006,0.192,0.006c1.2,0,2.213-0.92,2.308-2.137
						l1.397-17.312c0.287,0.129,0.6,0.207,0.935,0.207c0.344,0,0.648-0.078,0.94-0.207l1.397,17.312
						c0.095,1.217,1.111,2.137,2.308,2.137c0.067,0,0.125,0,0.192-0.006c1.278-0.109,2.229-1.23,2.134-2.497l-1.546-19.156v-13.214
						c0.198,0.055,0.38,0.11,0.542,0.158l1.416,12.696c0.106,0.986,0.947,1.718,1.915,1.718c0.067,0,0.149,0,0.216-0.007
						c1.069-0.122,1.827-1.083,1.711-2.144l-1.553-13.932C92.72,168.261,92.662,168.188,92.637,168.103z"/>
				</g>
				<g>
					<path d="M105.506,164.692c2.698,0,4.89-3.129,4.89-5.833c0-2.71-2.191-4.896-4.89-4.896c-2.706,0-4.901,2.186-4.901,4.896
						C100.605,161.563,102.806,164.692,105.506,164.692z"/>
					<path d="M115.091,168.103c-0.03-0.146-0.067-0.279-0.128-0.414c-0.061-0.098-0.122-0.17-0.195-0.256
						c-0.085-0.121-0.164-0.23-0.279-0.334c-0.086-0.074-0.184-0.116-0.28-0.178c-0.104-0.061-0.177-0.133-0.293-0.182
						c-0.17-0.062-4.067-1.449-7.647-1.633l-0.493,0.98h-0.019l1.303,10.15l-1.553,2.717l-1.553-2.71l1.31-10.151h-0.024
						l-0.48-0.986c-3.584,0.189-7.481,1.571-7.658,1.645c-0.113,0.043-0.198,0.115-0.286,0.183c-0.1,0.049-0.204,0.098-0.28,0.171
						c-0.119,0.098-0.207,0.219-0.286,0.328c-0.064,0.086-0.131,0.158-0.189,0.256c-0.061,0.128-0.091,0.28-0.137,0.414
						c-0.012,0.086-0.067,0.158-0.079,0.25l-1.553,13.938c-0.112,1.061,0.648,2.021,1.714,2.144c0.073,0.007,0.144,0.007,0.22,0.007
						c0.971,0,1.812-0.737,1.918-1.718l1.416-12.696c0.155-0.048,0.344-0.104,0.524-0.158v13.214l-1.541,19.156
						c-0.097,1.272,0.85,2.388,2.141,2.497c0.061,0.006,0.125,0.006,0.186,0.006c1.2,0,2.208-0.92,2.308-2.137l1.397-17.312
						c0.286,0.129,0.597,0.207,0.941,0.207c0.338,0,0.646-0.078,0.938-0.207l1.395,17.312c0.104,1.217,1.114,2.137,2.308,2.137
						c0.067,0,0.122,0,0.195-0.006c1.278-0.109,2.229-1.23,2.131-2.497l-1.541-19.156v-13.214c0.189,0.055,0.372,0.11,0.53,0.158
						l1.412,12.696c0.11,0.986,0.95,1.718,1.919,1.718c0.066,0,0.14,0,0.225-0.007c1.06-0.122,1.814-1.083,1.699-2.144
						l-1.553-13.932C115.165,168.261,115.11,168.188,115.091,168.103z"/>
				</g>
				<g>
					<path d="M127.958,164.692c2.703,0,4.896-3.129,4.896-5.833c0-2.71-2.192-4.896-4.896-4.896c-2.71,0-4.896,2.186-4.896,4.896
						C123.062,161.563,125.254,164.692,127.958,164.692z"/>
					<path d="M137.542,168.103c-0.036-0.146-0.072-0.279-0.134-0.414c-0.049-0.098-0.122-0.17-0.183-0.256
						c-0.098-0.121-0.17-0.23-0.28-0.334c-0.085-0.074-0.183-0.116-0.28-0.178c-0.097-0.061-0.183-0.133-0.286-0.182
						c-0.183-0.062-4.073-1.449-7.666-1.633l-0.487,0.98h-0.024l1.304,10.15l-1.547,2.704l-1.547-2.704l1.304-10.15h-0.013
						l-0.499-0.98c-3.581,0.184-7.459,1.571-7.648,1.633c-0.109,0.049-0.194,0.121-0.286,0.182c-0.104,0.062-0.201,0.104-0.28,0.178
						c-0.115,0.104-0.2,0.219-0.286,0.334c-0.061,0.086-0.134,0.152-0.183,0.244c-0.066,0.134-0.097,0.279-0.146,0.42
						c-0.013,0.085-0.062,0.164-0.079,0.25l-1.541,13.932c-0.115,1.06,0.646,2.033,1.705,2.149c0.073,0.006,0.146,0.006,0.219,0.006
						c0.975,0,1.803-0.736,1.919-1.717l1.406-12.702c0.164-0.043,0.354-0.098,0.548-0.158v13.213l-1.547,19.157
						c-0.097,1.278,0.853,2.399,2.138,2.503c0.061,0.006,0.115,0.006,0.188,0.006c1.193,0,2.211-0.914,2.314-2.144l1.388-17.306
						c0.286,0.135,0.604,0.207,0.938,0.207c0.342,0,0.652-0.072,0.944-0.207l1.395,17.306c0.098,1.218,1.108,2.144,2.313,2.144
						c0.062,0,0.116,0,0.183-0.006c1.285-0.116,2.229-1.23,2.144-2.503l-1.547-19.157v-13.213c0.189,0.061,0.365,0.115,0.536,0.158
						l1.4,12.702c0.122,0.986,0.95,1.717,1.925,1.717c0.072,0,0.146,0,0.219-0.006c1.06-0.116,1.82-1.077,1.705-2.149l-1.547-13.932
						C137.615,168.261,137.566,168.188,137.542,168.103z"/>
				</g>
			</g>
			<path d="M206.167,180.093c0.098-2.734-0.359-5.505-1.376-8.147l4.238-2.637l-4.153-6.644l-4.231,2.643
				c-1.942-2.076-4.22-3.689-6.717-4.805l1.12-4.853l-7.642-1.76l-1.114,4.859c-2.728-0.11-5.505,0.347-8.147,1.37l-2.654-4.238
				l-6.625,4.146l2.643,4.232c-2.076,1.93-3.696,4.22-4.811,6.723l-4.854-1.127l-1.766,7.63l4.854,1.126
				c-0.098,2.734,0.353,5.492,1.382,8.147l-4.244,2.643l4.153,6.638l4.237-2.648c1.925,2.088,4.214,3.695,6.717,4.81l-1.114,4.854
				l7.623,1.76l1.121-4.854c2.728,0.11,5.504-0.347,8.147-1.376l2.643,4.238l6.637-4.152l-2.643-4.238
				c2.076-1.925,3.702-4.227,4.798-6.723l4.859,1.127l1.76-7.631L206.167,180.093z M193.001,191.278
				c-6.588,4.109-15.253,2.106-19.375-4.476c-4.104-6.583-2.107-15.26,4.469-19.37c6.577-4.116,15.266-2.119,19.382,4.47
				S199.579,187.174,193.001,191.278z"/>
			<path d="M25.465,153.885C11.423,153.885,0,165.308,0,179.343c0,14.049,11.423,25.472,25.465,25.472s25.465-11.423,25.465-25.472
				C50.936,165.308,39.506,153.885,25.465,153.885z M36.371,197.1l-0.993-1.718l-0.983,0.566l0.978,1.699
				c-2.807,1.534-5.949,2.466-9.329,2.558v-2.016h-1.148v2.016c-3.379-0.092-6.54-1.023-9.332-2.558l0.983-1.699l-0.99-0.566
				l-0.992,1.729c-2.795-1.717-5.133-4.056-6.847-6.844l1.729-0.999l-0.575-0.986l-1.702,0.975
				c-1.528-2.801-2.463-5.943-2.557-9.329H6.64v-1.145H4.613c0.1-3.38,1.035-6.534,2.557-9.341l1.696,0.986l0.572-0.992l-1.72-0.999
				c1.714-2.782,4.04-5.121,6.835-6.838l1.004,1.729l0.983-0.572l-0.977-1.699c2.798-1.528,5.952-2.466,9.332-2.558v2.021h0.469
				l-3.099,6.192h2.064v11.984l-6.427,3.702l-1.035-1.79l-3.942,5.973l7.146-0.42l-1.041-1.79l7.002-4.043
				c0.037-0.024,0.045-0.098,0.094-0.122c0.125-0.098,0.174-0.207,0.262-0.341c0.076-0.128,0.137-0.231,0.155-0.384
				c0.006-0.055,0.058-0.092,0.058-0.146v-12.635h2.061l-3.09-6.187h0.454l0.006-2.021c3.379,0.098,6.527,1.029,9.334,2.558
				l-0.992,1.705l0.999,0.56l0.992-1.723c2.786,1.711,5.124,4.049,6.838,6.838l-1.72,1.005l0.575,0.986l1.696-0.986
				c1.525,2.807,2.463,5.955,2.561,9.334h-2.019v1.146h2.019c-0.097,3.386-1.035,6.54-2.561,9.341l-1.696-0.986l-0.569,0.998
				l1.72,0.992C41.495,193.05,39.156,195.382,36.371,197.1z"/>
		</g>
		<polygon points="107.194,119.529 107.194,113.349 103.817,113.349 103.817,119.529 23.781,119.529 23.781,146.462 27.148,146.462 
			27.148,122.897 103.817,122.897 103.817,146.462 107.194,146.462 107.194,122.897 183.868,122.897 183.868,146.462 
			187.229,146.462 187.229,119.529 		"/>
	</g>
</g>
<g>
</g>
<g>
</g>
<g>
</g>
<g>
</g>
<g>
</g>
<g>
</g>
<g>
</g>
<g>
</g>
<g>
</g>
<g>
</g>
<g>
</g>
<g>
</g>
<g>
</g>
<g>
</g>
<g>
</g>
</svg>
